<?xml version="1.0" encoding="UTF-8" standalone="no"?>
<svg
   xmlns:dc="http://purl.org/dc/elements/1.1/"
   xmlns:cc="http://creativecommons.org/ns#"
   xmlns:rdf="http://www.w3.org/1999/02/22-rdf-syntax-ns#"
   xmlns:svg="http://www.w3.org/2000/svg"
   xmlns="http://www.w3.org/2000/svg"
   xmlns:sodipodi="http://sodipodi.sourceforge.net/DTD/sodipodi-0.dtd"
   xmlns:inkscape="http://www.inkscape.org/namespaces/inkscape"
   width="64.000458"
   height="31.778"
   viewBox="0 0 64.000458 31.778"
   id="svg4752"
   version="1.1"
   inkscape:version="0.48.5 r10040"
   sodipodi:docname="key1.svg">
  <metadata
     id="metadata4778">
    <rdf:RDF>
      <cc:Work
         rdf:about="">
        <dc:format>image/svg+xml</dc:format>
        <dc:type
           rdf:resource="http://purl.org/dc/dcmitype/StillImage" />
      </cc:Work>
    </rdf:RDF>
  </metadata>
  <defs
     id="defs4776" />
  <sodipodi:namedview
     pagecolor="#ffffff"
     bordercolor="#666666"
     borderopacity="1"
     objecttolerance="10"
     gridtolerance="10"
     guidetolerance="10"
     inkscape:pageopacity="0"
     inkscape:pageshadow="2"
     inkscape:window-width="1280"
     inkscape:window-height="969"
     id="namedview4774"
     showgrid="false"
     fit-margin-top="0"
     fit-margin-left="0"
     fit-margin-right="0"
     fit-margin-bottom="0"
     inkscape:zoom="3.6875"
     inkscape:cx="32.000361"
     inkscape:cy="15.889"
     inkscape:window-x="1280"
     inkscape:window-y="31"
     inkscape:window-maximized="1"
     inkscape:current-layer="svg4752" />
  <linearGradient
     id="a1"
     gradientUnits="userSpaceOnUse"
     x1="1.5930001"
     y1="32"
     x2="61.856499"
     y2="32"
     gradientTransform="translate(3.6149009e-4,-16.111)">
    <stop
       offset="0"
       stop-color="#FFF7B0"
       id="stop4755" />
    <stop
       offset="0.21"
       stop-color="#FFEC41"
       id="stop4757" />
    <stop
       offset="0.84"
       stop-color="#E2CC00"
       id="stop4759" />
    <stop
       offset="1"
       stop-color="#C3AF00"
       id="stop4761" />
  </linearGradient>
  <path
     d="m 58.449361,10.692 -25.895,0.205 -0.158,-2.863 c -0.012,-1.023 -1.239,-1.45 -2.041,-0.921 l -2.916,2.381 c -1.535,-3.327 -4.258,-6.078 -7.634,-7.407 -1.527,-0.644 -3.157,-0.937 -4.783,-0.923 -3.58,0.026 -7.1579995,1.549 -9.6729995,4.185 -4.51100001,4.517 -5.40400001,12.104 -2.422,17.737 2.545,5.094 8.3179995,8.19 13.8439995,7.407 4.9,-0.589 9.033,-4.23 10.93,-8.812 l 3.509,2.015 c 1.027,0.64 1.603,-0.162 1.603,-1.104 l -0.067,-3.762 3.993,0.093 2.713,2.555 3.533,-3.578 3.229,3.082 h 2.387 l 3.306,-3.313 2.395,2.023 3.047,-0.126 2.644,-2.539 2.847,-2.622 c -0.487,-1.609 -1.862,-2.603 -4.391,-3.713 z M 9.1613615,18.593 c -1.258,0.168 -2.574,-0.502 -3.153,-1.602 -0.68,-1.215 -0.474,-2.851 0.551,-3.827 0.836,-0.826 2.179,-1.146 3.294,-0.699 1.1679995,0.435 1.9989995,1.577 2.0449995,2.79 0.002,0.061 0.006,0.124 0.006,0.188 0.037,1.508 -1.182,2.972 -2.7429995,3.15 z"
     id="path4763"
     inkscape:connector-curvature="0"
     style="fill:url(#a1)" />
  <path
     d="m 61.407361,14.066 -34.31,0.425 3.936,1.233 29.143,-0.428 1.262,-1.187 c -0.009,-0.014 -0.021,-0.028 -0.031,-0.043 z"
     id="path4765"
     inkscape:connector-curvature="0"
     style="fill:#be9700" />
  <linearGradient
     id="a2"
     gradientUnits="userSpaceOnUse"
     x1="42.5844"
     y1="20.573299"
     x2="9.0263004"
     y2="43.957199"
     gradientTransform="translate(3.6149009e-4,-16.111)">
    <stop
       offset="0"
       stop-color="#7D6400"
       id="stop4768" />
    <stop
       offset="1"
       stop-color="#BE9700"
       id="stop4770" />
  </linearGradient>
  <path
     d="m 15.051361,31.778 c -5.4339995,0 -10.7249995,-3.283 -13.1679995,-8.172 -3.289,-6.215 -2.18400001,-14.249 2.641,-19.08 2.711,-2.842 6.5409995,-4.498 10.4879995,-4.526 0.002,0 0.003,0 0.004,0 1.92,0 3.644,0.342 5.241,1.015 3.093,1.218 5.792,3.613 7.555,6.671 l 1.807,-1.475 c 1.87,-1.26 3.919,0.034 3.942,1.809 l 0.095,1.705 24.784,-0.197 c 0.213,-0.007 0.327,0.033 0.477,0.098 2.559,1.123 4.395,2.309 5.034,4.445 0.128,0.426 0.001,0.889 -0.326,1.19 l -5.474,5.144 c -0.204,0.197 -0.474,0.312 -0.758,0.324 l -3.046,0.127 c -0.27,0.02 -0.576,-0.085 -0.8,-0.274 l -1.576,-1.332 -2.548,2.555 c -0.219,0.219 -0.516,0.342 -0.825,0.342 h -2.387 c -0.3,0 -0.588,-0.115 -0.804,-0.323 l -2.4,-2.292 -2.728,2.764 c -0.444,0.45 -1.167,0.462 -1.627,0.03 l -2.388,-2.248 -2.334,-0.055 0.046,2.548 c 0,1.994 -1.74,3.138 -3.383,2.114 l -2.369,-1.36 c -2.328,4.549 -6.648,7.765 -11.314,8.325 -0.595,0.084 -1.228,0.128 -1.859,0.128 z m 0.077,-29.45 c -3.37,0.025 -6.6739995,1.454 -8.9379995,3.825 -4.072,4.079 -5.026,11.116 -2.236,16.389 2.304,4.612 7.5809995,7.517 12.6529995,6.799 4.268,-0.514 8.191,-3.694 10.017,-8.104 0.129,-0.309 0.384,-0.549 0.701,-0.657 0.316,-0.11 0.664,-0.076 0.955,0.092 l 3.367,1.933 c 0,-0.005 0,-0.009 0,-0.013 l -0.067,-3.74 c -0.006,-0.318 0.118,-0.623 0.344,-0.847 0.224,-0.223 0.536,-0.329 0.848,-0.339 l 3.993,0.093 c 0.288,0.007 0.563,0.12 0.772,0.317 l 1.885,1.775 2.734,-2.77 c 0.447,-0.452 1.172,-0.464 1.633,-0.024 l 2.891,2.76 h 1.437 l 2.964,-2.971 c 0.429,-0.429 1.114,-0.456 1.576,-0.067 l 2.049,1.73 2.152,-0.089 4.582,-4.31 c -0.486,-0.788 -1.455,-1.452 -3.231,-2.25 l -25.642,0.204 c -0.004,0 -0.007,0 -0.01,0 -0.617,0 -1.129,-0.483 -1.163,-1.1 l -0.158,-2.864 -3.059,2.298 c -0.28,0.227 -0.65,0.316 -0.998,0.232 -0.35,-0.082 -0.644,-0.32 -0.795,-0.647 -1.452,-3.148 -4.005,-5.63 -7.004,-6.81 -1.338,-0.565 -2.759,-0.845 -4.252,-0.845 z M 8.7723615,19.784 c -1.587,0 -3.076,-0.883 -3.795,-2.25 -0.94,-1.68 -0.618,-3.883 0.779,-5.213 1.143,-1.129 3.034,-1.535 4.5299995,-0.937 1.585,0.589 2.711,2.131 2.774,3.828 10e-4,0.014 0.007,0.216 0.007,0.23 0.054,2.118 -1.639,4.065 -3.7739995,4.309 -0.159,0.02 -0.34,0.033 -0.521,0.033 z m 0.009,-6.357 c -0.52,0 -1.045,0.211 -1.404,0.565 -0.633,0.603 -0.781,1.665 -0.352,2.431 0.361,0.686 1.19,1.13 1.983,1.017 0.956,-0.109 1.7549995,-1.028 1.7309995,-1.968 -0.033,-0.916 -0.574,-1.648 -1.2919995,-1.915 -0.224,-0.09 -0.439,-0.13 -0.666,-0.13 z"
     id="path4772"
     inkscape:connector-curvature="0"
     style="fill:url(#a2)" />
</svg>
